<svg xmlns="http://www.w3.org/2000/svg" width="108" height="89" viewBox="0 0 108 89">
    <g fill="none">
        <path fill="#EBEBEB" d="M0 70.718H108V71.718H0zM78.408 74.194H97.178V75.194H78.408zM77.255 72.189H79.13199999999999V73.189H77.255zM69.666 74.781H73.81099999999999V75.781H69.666zM11.331 72.552H15.997V73.552H11.331zM17.919 72.552H23.952V73.552H17.919zM44.857 73.438H54.974000000000004V74.438H44.857zM51.192 61.085H9.485c-.68-.001-1.232-.553-1.232-1.234V1.223C8.26.546 8.808 0 9.485 0h41.707c.681 0 1.233.552 1.233 1.233v58.618c0 .682-.552 1.234-1.233 1.234zM9.485.043c-.65.001-1.178.53-1.178 1.18V59.85c0 .65.527 1.179 1.178 1.18h41.707c.65-.001 1.178-.529 1.18-1.18V1.223c-.002-.651-.53-1.179-1.18-1.18H9.485zM97.915 61.085h-41.71c-.68-.001-1.232-.553-1.233-1.234V1.223C54.979.546 55.529 0 56.205 0h41.71c.675.002 1.223.547 1.229 1.223V59.85c0 .68-.55 1.231-1.229 1.234zM56.205.043c-.65.001-1.178.529-1.179 1.18V59.85c.001.651.529 1.179 1.18 1.18h41.709c.65-.001 1.178-.529 1.18-1.18V1.223c-.002-.651-.53-1.179-1.18-1.18h-41.71z"/>
        <path fill="#F0F0F0" d="M59.439 69.982H40.792c-1.811 0-3.28-1.468-3.28-3.279v-16.75c0-.87.345-1.705.96-2.32.615-.616 1.45-.962 2.32-.962h18.647v23.31z"/>
        <rect width="6.867" height="23.309" x="56.007" y="46.673" fill="#F5F5F5" rx="3.279" transform="rotate(180 59.44 58.328)"/>
        <path fill="#F0F0F0" d="M34.923 55.27H56.944V69.982H34.923z"/>
        <path fill="#E0E0E0" d="M16.72 69.984h42.896v.063c0 .37-.3.671-.672.671h-41.55c-.37 0-.671-.3-.671-.671v-.063h-.002zM38.645 38.176H18.317c-1.185-.022-2.321.468-3.12 1.343-.798.875-1.181 2.052-1.051 3.23l1.406 15.847h29.469L43.632 42.75c-.264-2.568-2.407-4.532-4.987-4.573z"/>
        <path fill="#F5F5F5" d="M43.23 38.176H22.464c-1.128-.021-2.21.444-2.97 1.278-.76.833-1.125 1.953-1 3.074l1.421 16.068h29.471l-1.419-16.068c-.25-2.44-2.284-4.308-4.737-4.352z"/>
        <path fill="#E0E0E0" d="M36.022 53.927h20.98c.546 0 .988.442.988.987v4.02c0 .545-.442.987-.988.987h-20.98c-.03 0-.056-.026-.056-.057v-5.881c0-.031.025-.056.056-.056z"/>
        <path fill="#F0F0F0" d="M34.815 69.982H16.168c-1.811 0-3.28-1.468-3.28-3.279v-16.75c0-.87.345-1.705.96-2.32.615-.616 1.45-.962 2.32-.962h18.647v23.31z"/>
        <rect width="6.867" height="23.309" x="31.383" y="46.673" fill="#F5F5F5" rx="3.279" transform="rotate(180 34.816 58.328)"/>
        <path fill="#E6E6E6" d="M89.167 43.278H94.997V70.719H89.167z"/>
        <path fill="#F0F0F0" d="M93.889 70.718L94.997 70.718 94.997 65.943 92.729 65.943z"/>
        <path fill="#E6E6E6" d="M67.379 43.278H73.209V70.719H67.379z"/>
        <path fill="#F0F0F0" d="M72.241 43.278H94.997V69.142H72.241z"/>
        <path fill="#E6E6E6" d="M86.093 42.749H92.037V52.897000000000006H86.093z" transform="rotate(-90 89.065 47.822)"/>
        <path fill="#E6E6E6" d="M75.203 42.749H81.147V52.897000000000006H75.203z" transform="rotate(-90 78.175 47.822)"/>
        <path fill="#F0F0F0" d="M79.18 45.576h-2.01c-.84.011-1.656-.275-2.304-.808h6.618c-.649.533-1.465.82-2.305.808zM90.171 45.576h-2.008c-.84.011-1.656-.275-2.305-.808h6.618c-.649.533-1.465.82-2.305.808z"/>
        <path fill="#E6E6E6" d="M86.093 50.397H92.037V60.545H86.093z" transform="rotate(-90 89.065 55.471)"/>
        <path fill="#E6E6E6" d="M75.203 50.397H81.147V60.545H75.203z" transform="rotate(-90 78.175 55.471)"/>
        <path fill="#F0F0F0" d="M79.18 53.218h-2.01c-.84.01-1.656-.276-2.304-.81h6.618c-.649.534-1.465.82-2.305.81zM90.171 53.218h-2.008c-.84.01-1.657-.276-2.305-.81h6.618c-.648.534-1.465.82-2.305.81z"/>
        <path fill="#E6E6E6" d="M86.093 58.044H92.037V68.192H86.093z" transform="rotate(-90 89.065 63.117)"/>
        <path fill="#E6E6E6" d="M75.203 58.046H81.147V68.194H75.203z" transform="rotate(-90 78.175 63.12)"/>
        <path fill="#F0F0F0" d="M79.18 60.864h-2.01c-.84.01-1.657-.28-2.304-.816h6.618c-.648.536-1.464.825-2.305.816zM90.171 60.864h-2.008c-.841.01-1.658-.28-2.305-.816h6.618c-.647.536-1.464.825-2.305.816zM73.349 70.718L72.241 70.718 72.241 65.943 74.509 65.943z"/>
        <path fill="#E6E6E6" d="M74.287 39.694s.093 3.584 3.598 3.584c3.506 0 3.599-3.584 3.599-3.584h-7.197z"/>
        <path fill="#FAFAFA" d="M85.23 40.14s.081 3.138 3.153 3.138c3.071 0 3.151-3.139 3.151-3.139H85.23z"/>
        <path fill="#F5F5F5" d="M82.553 40.744s.065 2.534 2.545 2.534 2.542-2.534 2.542-2.534h-5.087z"/>
        <path fill="#E6E6E6" d="M74.287 37.003s.093 3.581 3.598 3.581c3.506 0 3.599-3.581 3.599-3.581h-7.197zM18.688 3.229H88.506V33.311H18.688z"/>
        <path fill="#F0F0F0" d="M19.57 3.229H89.94300000000001V33.311H19.57z"/>
        <path fill="#FAFAFA" d="M41.348 -15.46H68.164V52.005H41.348z" transform="rotate(90 54.756 18.273)"/>
        <path fill="#FFF" d="M29.305 31.679L37.837 4.862 49.021 4.862 40.489 31.679zM42.299 31.679L50.831 4.862 55.884 4.862 47.352 31.679zM62.342 31.679L70.874 4.862 79.501 4.862 70.969 31.679z"/>
        <path fill="#E6E6E6" d="M74.989 18.181H101.805V19.181H74.989z" transform="rotate(90 88.397 18.273)"/>
        <path fill="#F0F0F0" d="M52.659 3.229H56.854V33.311H52.659z"/>
        <path fill="#E6E6E6" d="M39.159 18.179H65.975V19.179H39.159z" transform="rotate(90 52.567 18.27)"/>
        <path fill="#E6E6E6" d="M54.683 3.229H55.683V33.311H54.683z"/>
        <g fill="#F5F5F5" transform="translate(12.096 75.384)">
            <ellipse cx="41.904" cy="2.644" rx="41.88" ry="2.445"/>
        </g>
        <g transform="translate(8.856 19.44)">
            <path fill="#E63A46" d="M39.232 10.057h-4.77v48.53h4.77c8.67 0 16.68-4.624 21.015-12.132 4.334-7.508 4.334-16.758 0-24.265-4.335-7.508-12.346-12.133-21.015-12.133z"/>
            <path fill="#000" d="M39.232 10.057h-4.77v48.53h4.77c8.67 0 16.68-4.624 21.015-12.132 4.334-7.508 4.334-16.758 0-24.265-4.335-7.508-12.346-12.133-21.015-12.133z" opacity=".1"/>
            <path fill="#E63A46" d="M23.44 12.096l-.097-.192c1.687-.84 3.464-1.486 5.296-1.925l.05.216c-1.816.433-3.577 1.071-5.249 1.901zM20.637 13.735l-.12-.179c.465-.31.945-.613 1.426-.892l.108.186c-.477.278-.952.577-1.414.885z"/>
            <circle cx="34.463" cy="34.322" r="24.265" fill="#E63A46" transform="rotate(-45 34.463 34.322)"/>
            <path fill="#000" d="M49.27 21.228c-7.822-6.933-19.69-6.578-27.083.81-7.393 7.39-7.754 19.257-.825 27.083-5.496-4.874-7.837-12.393-6.077-19.525 1.76-7.132 7.33-12.7 14.463-14.455 7.133-1.757 14.652.588 19.522 6.087z" opacity=".1"/>
        </g>
        <path fill="#C02B35" d="M51.214 67.5l-6.999-8.813c-.713-.907-1.199-1.49-1.458-1.685 1.717-.388 3.078-1.101 4.115-2.138.713-.778 1.199-1.75 1.393-2.851h3.37l.713-2.139H48.33c-.13-1.328-.55-2.462-1.231-3.37h4.503l.713-2.138h-15.39l-.713 2.139h3.467c1.588 0 2.787.324 3.629 1.037.648.55 1.037 1.328 1.199 2.332H36.99l-.713 2.139h8.165c-.194.81-.648 1.458-1.328 1.944-1.005.713-2.528 1.069-4.569 1.069h-2.009v2.527c.713 0 1.426.227 2.074.68.583.39 1.134.908 1.652 1.62l5.8 7.647h5.152z"/>
        <path fill="#FFF" d="M51.754 66.96l-6.999-8.813c-.713-.907-1.199-1.49-1.458-1.685 1.717-.388 3.078-1.101 4.115-2.138.713-.778 1.199-1.75 1.393-2.851h3.37l.713-2.139H48.87c-.13-1.328-.55-2.462-1.231-3.37h4.503l.713-2.138h-15.39l-.713 2.139h3.467c1.588 0 2.787.324 3.629 1.037.648.55 1.037 1.328 1.199 2.332H37.53l-.713 2.139h8.165c-.194.81-.648 1.458-1.328 1.944-1.005.713-2.528 1.069-4.569 1.069h-2.009v2.527c.713 0 1.426.227 2.074.68.583.39 1.134.908 1.652 1.62l5.8 7.647h5.152z"/>
        <g transform="translate(59.616 11.016)">
            <ellipse cx="6.927" cy="5.892" fill="#263238" rx="2.115" ry="2.082"/>
            <path fill="#263238" d="M8.802 7.642c.006.478-.277.911-.716 1.098-.44.187-.948.09-1.288-.245-.34-.335-.443-.843-.262-1.285.181-.441.611-.73 1.089-.73.31-.002.609.119.83.337.22.218.345.515.347.825z"/>
            <ellipse cx="9.834" cy="5.506" fill="#263238" rx="2.115" ry="2.082"/>
            <path fill="#FF8B7B" d="M10.146 65.234L11.88 65.208 12.379 61.186 10.644 61.212zM20.704 65.141L22.272 64.225 21.015 60.517 19.449 61.433z"/>
            <path fill="#263238" d="M22.44 64.102l-1.838 1.044c-.062.034-.091.107-.069.175l.462 1.512c.024.073.08.132.152.16.072.028.153.021.22-.018.585-.345.998-.624 1.743-1.047.458-.26 1.868-.996 2.501-1.357.633-.36.36-1.03.07-.942-1.308.406-2.377.553-2.943.432-.1-.022-.207-.008-.298.041zM11.915 65.016l-1.895.03c-.07 0-.13.05-.144.119l-.318 1.547c-.017.075.002.154.052.214.05.06.123.093.2.09.683-.021 1.67-.078 2.528-.09 1.004-.016 1.873.025 3.05 0 .71-.011.896-.733.598-.793-1.36-.277-2.469-.292-3.652-.996-.126-.078-.271-.12-.42-.121z"/>
            <path fill="#FF8B7B" d="M14.558 12.496c.242.507.504 1.056.77 1.576.265.521.537 1.054.818 1.569.54 1.016 1.144 1.997 1.81 2.935l.123.17c.02.027.02.029.017.033-.053-.025-.111-.042-.17-.05-.095-.01-.164.022-.156.03.046-.007.09-.026.128-.053.18-.124.343-.27.488-.432.181-.197.351-.404.51-.62.339-.445.648-.938.965-1.439.318-.501.611-1.024.899-1.531l1.214.473c-.328 1.238-.795 2.435-1.394 3.568-.165.298-.347.586-.544.864-.225.321-.49.612-.79.864-.2.167-.422.303-.661.404-.332.14-.696.188-1.052.138-.361-.06-.7-.217-.979-.453-.107-.091-.207-.19-.3-.294l-.16-.19c-.427-.492-.824-1.008-1.19-1.547-.37-.525-.702-1.065-1.026-1.607-.324-.542-.624-1.095-.912-1.654-.287-.56-.557-1.113-.814-1.728l2.406-1.026z"/>
            <path fill="#E63A46" d="M11.448 12.485c-.467 1.59 2.825 5.925 2.825 5.925l3.318-2.134c-.626-1.375-1.397-2.678-2.3-3.888-1.37-1.744-3.34-1.648-3.843.097z"/>
            <path fill="#000" d="M13.461 14.351c.683.292 1.687 1.944 2.21 3.154l-1.415.905c-.787-1.052-1.494-2.161-2.117-3.318.452-.488.961-.894 1.322-.741z" opacity=".2"/>
            <path fill="#FF8B7B" d="M20.777 15.355l-.432-1.954 1.972-.015s.527 1.468-.531 2.16l-1.009-.19z"/>
            <path fill="#FF8B7B" d="M20.576 11.569L22.157 12.137 22.324 13.386 20.352 13.401z"/>
            <path fill="#000" d="M12.379 61.186L12.122 63.26 10.385 63.288 10.644 61.214zM19.449 61.433L21.017 60.519 21.663 62.43 20.094 63.344z" opacity=".2"/>
            <path fill="#E63A46" d="M3.709 11.78c1.868 6.586 1.492 13.576 1.66 14.991 1.355-.097 6.463-.48 9.248-.687.887-9.908-1.214-14.938-1.214-14.938s-.594-.115-1.404-.2c-.253-.025-.527-.047-.812-.062-.158 0-.318-.015-.48-.017-1.315.022-2.627.12-3.931.292-.246.03-.497.069-.741.108-.244.038-.445.08-.648.12-.948.188-1.678.394-1.678.394z"/>
            <path fill="#FFF" d="M10.286 17.768L8.828 18.481 7.238 17.891 6.977 15.332 10.027 15.209z" opacity=".1"/>
            <path fill="#000" d="M5.683 14.606c.166.637-.024 3.544-.69 4.262-.09-.931-.215-1.903-.37-2.897l1.06-1.365z" opacity=".2"/>
            <path fill="#FF8B7B" d="M6.836 6.696c.344 1.246.763 3.547-.06 4.456.739.633 1.696 1.354 3.203 1.296 1.508-.058 1.167-1.08.728-1.588-1.434-.233-1.477-1.283-1.296-2.283L6.836 6.696z"/>
            <path fill="#FFF" d="M6.776 10.865s.393.93 3.536 1.557c-.52.382-.758 1.318-.758 1.318s-4.104-.69-3.979-2.517c.214-.172 1.2-.358 1.2-.358zM11.664 13.392c-.382-.41-.84-.741-1.35-.974.432-.438.56-1.093.324-1.661.315-.01.63.003.944.039 0 0 1.46 1.136.082 2.596z"/>
            <path fill="#263238" d="M10.465 13.738c.028.19.134.33.238.315.103-.015.162-.181.134-.372-.028-.19-.134-.332-.236-.317-.101.015-.164.181-.136.374z" opacity=".4"/>
            <path fill="#000" d="M7.884 7.471l1.512 1.113c-.044.233-.067.47-.07.706-.543-.039-1.328-.574-1.427-1.134-.047-.225-.052-.457-.015-.685z" opacity=".2"/>
            <ellipse cx="8.588" cy="2.778" fill="#263238" rx="2.406" ry="2.37"/>
            <path fill="#263238" d="M10.835 3.082c-.014-.005-.022-.02-.018-.034.167-.6.086-1.243-.227-1.782C10.277.72 9.76.32 9.154.153 9.14.15 9.131.135 9.134.121c.004-.014.019-.023.033-.02.621.169 1.15.578 1.469 1.137.32.552.404 1.21.233 1.825-.005.014-.02.022-.034.02z"/>
            <ellipse cx="10.569" cy="3.845" fill="#263238" rx="1.819" ry="1.791"/>
            <ellipse cx="6.398" cy="3.918" fill="#263238" rx="2.115" ry="2.082"/>
            <path fill="#FF8B7B" d="M6.545 4.81c.233 1.705.283 2.715 1.212 3.53 1.4 1.224 3.456.283 3.736-1.456.255-1.566-.168-4.091-1.896-4.648-.773-.254-1.623-.09-2.245.435-.622.525-.927 1.334-.807 2.14z"/>
            <path fill="#263238" d="M5.577 3.961c.177 2.398 5.474-.956 4.346-2.235-1.127-1.279-2.858-.376-3.482.2-.78.72-.907 1.448-.864 2.035z"/>
            <path fill="#263238" d="M9.7 1.825c.977-.298 2.644 1.443 1.15 1.268-1.495-.175-2.294-.916-1.15-1.268z"/>
            <path fill="#FF8B7B" d="M5.912 6.756c.256.35.64.583 1.07.648.567.083.777-.444.556-.941-.196-.447-.732-1.028-1.272-.882-.54.147-.665.746-.354 1.175z"/>
            <path fill="#263238" d="M12.766 62.856l-2.936.045s1.696-11.597 1.432-16.992c-.08-1.642.182-3.938-.25-6.398-.549-3.102-.812-4.338-1.512-8.256-.506-2.795-.953-4.71-.953-4.71l6.078-.454s1.985 13.977 1.927 19.267c-.069 5.495-3.786 17.498-3.786 17.498zM6.294 4.195c.98.283 1.43 2.652.27 1.689-1.16-.964-1.419-2.02-.27-1.69z"/>
            <path fill="#000" d="M11.016 39.504c.206 1.285.292 2.587.255 3.888.505 1.428.946 2.78 1.253 3.983.538 2.106 1.389 5.299 2.218 8.368.9-3.594 1.778-7.748 1.806-10.396l-5.532-5.843z" opacity=".2"/>
            <path fill="#263238" d="M11.338 26.328s4.367 11.038 6.022 15.84c1.814 5.26 4.741 19.457 4.741 19.457l-2.76 1.568s-4.305-11.705-6.087-16.829c-2.03-5.832-7.623-15.057-7.884-19.59l5.968-.446z"/>
            <path fill="#E63A46" d="M22.466 61.497L19.213 63.342 18.662 62.37 22.263 60.247zM13.135 62.912L9.638 62.966 9.621 61.836 13.528 61.716z"/>
            <path fill="#263238" d="M8.828 5.095c.01.14.093.249.184.24.09-.008.155-.125.146-.263-.008-.139-.092-.247-.183-.24-.09.006-.158.136-.147.263zM10.755 4.979c0 .14.093.246.183.24.091-.007.158-.126.147-.264-.01-.138-.093-.248-.183-.242-.091.007-.158.125-.147.266z"/>
            <path fill="#FF5652" d="M10.258 5.085c.198.414.453.8.756 1.144-.18.15-.417.213-.648.173l-.108-1.317z"/>
            <path fill="#263238" d="M9.796 6.82c-.317-.013-.615-.157-.821-.398-.01-.012-.014-.028-.009-.043.006-.015.02-.025.035-.026.015-.002.03.006.039.019.235.263.581.399.933.365.01-.001.021.002.03.009.007.007.012.017.013.028.001.01-.002.022-.009.03-.007.009-.017.014-.028.015-.06.004-.122.004-.183 0zM8.534 4.622c-.014 0-.027-.004-.039-.013-.018-.011-.03-.03-.035-.05-.005-.022 0-.044.012-.062.139-.228.38-.373.648-.389.045 0 .082.037.082.082 0 .046-.037.082-.082.082-.209.018-.396.134-.504.314-.017.027-.05.042-.082.036zM11.394 4.115c-.028 0-.054-.016-.067-.041-.1-.185-.282-.31-.49-.335-.022-.001-.042-.01-.056-.027-.015-.017-.022-.038-.02-.06.002-.044.04-.078.084-.077.264.03.496.185.625.417.021.04.008.089-.03.112-.014.009-.03.012-.046.01z"/>
            <path fill="#E63A46" d="M23.088 64.083c-.137.073-.282.13-.432.168-.015.005-.032 0-.043-.013-.009-.014-.009-.031 0-.045.037-.065.354-.648.568-.648.049 0 .094.025.119.067.05.067.061.154.032.231-.052.105-.138.19-.244.24zm-.35.06c.285-.095.478-.216.52-.33.02-.054.01-.113-.025-.158-.017-.026-.032-.03-.045-.03-.113.006-.316.292-.45.527v-.009z"/>
            <path fill="#E63A46" d="M22.68 64.25h-.022c-.015-.002-.028-.01-.034-.025 0-.019-.216-.475-.125-.717.02-.06.066-.108.125-.131.055-.032.124-.02.166.028.128.15.013.648-.095.825-.002.008-.008.015-.015.02zm-.041-.785c-.031.016-.054.044-.065.078-.029.195.003.395.09.572.09-.205.14-.563.064-.648 0 0-.022-.028-.072 0l-.017-.002zM12.096 65.245c-.015-.005-.026-.019-.028-.035-.004-.017.005-.034.022-.04.077-.044.768-.407.98-.294.04.022.067.064.07.11.01.075-.018.15-.074.2-.188.171-.685.11-.966.059h-.004zm.92-.302c-.132-.044-.505.105-.78.241.385.059.67.037.776-.058.037-.034.054-.084.045-.134.002-.018-.009-.036-.026-.043l-.015-.006z"/>
            <path fill="#E63A46" d="M12.096 65.245h-.01c-.013-.008-.02-.022-.018-.037 0-.02.041-.488.257-.672.062-.055.144-.081.227-.073.114 0 .147.065.155.112.035.195-.373.577-.58.674-.011.002-.022 0-.031-.004zm.492-.7h-.043c-.06-.006-.121.015-.166.056-.126.153-.201.34-.216.538.216-.132.488-.432.469-.549-.003-.025-.025-.044-.05-.045h.006z"/>
            <path fill="#FF8B7B" d="M5.616 14.04c-.488 1.007-.98 2.041-1.458 3.065-.24.514-.477 1.026-.702 1.54-.225.514-.45 1.028-.661 1.542-.1.257-.216.514-.3.767l-.138.378c-.018.033-.032.068-.041.104-.023.109-.011.222.032.324.069.178.161.347.274.501.527.726 1.445 1.434 2.316 2.041l-.52 1.186c-.301-.087-.597-.19-.886-.309-.29-.116-.572-.247-.847-.393-.592-.3-1.138-.685-1.618-1.143-.28-.269-.517-.577-.706-.915-.23-.412-.354-.873-.361-1.344-.003-.252.029-.504.095-.747l.127-.445c.083-.296.178-.577.268-.864.385-1.134.817-2.23 1.281-3.307.465-1.078.964-2.126 1.512-3.18l2.333 1.199z"/>
            <path fill="#E63A46" d="M3.71 11.78c-1.582.497-3.138 5.86-3.138 5.86l3.66 1.601s1.185-2.592 1.866-4.622c.74-2.214-.471-3.439-2.387-2.838z"/>
            <path fill="#FF8B7B" d="M4.32 24.157l1.754.173-.713 1.944s-1.577-.35-1.557-1.21l.516-.907z"/>
            <path fill="#FF8B7B" d="M7.586 25.203L6.659 26.81 5.348 26.283 6.063 24.33z"/>
            <path fill="#FFF" d="M8.966 5.946c-.484.004-.922-.285-1.11-.73-.187-.447-.087-.962.254-1.306.34-.343.855-.447 1.303-.262.447.184.739.62.739 1.104-.001.656-.53 1.189-1.186 1.194zm0-2.28c-.437 0-.83.263-.998.666-.167.404-.074.868.234 1.177.31.31.774.401 1.177.234.404-.167.667-.56.667-.997-.003-.594-.486-1.074-1.08-1.074v-.006zM11.562 5.946c-.66 0-1.194-.534-1.194-1.194 0-.66.535-1.194 1.194-1.194.66 0 1.195.534 1.195 1.194-.001.66-.535 1.193-1.195 1.194zm0-2.28c-.596 0-1.08.483-1.08 1.08 0 .596.484 1.08 1.08 1.08.597 0 1.08-.484 1.08-1.08-.003-.594-.486-1.074-1.08-1.074v-.006z"/>
        </g>
    </g>
</svg>
