<svg xmlns="http://www.w3.org/2000/svg" xmlns:xlink="http://www.w3.org/1999/xlink" width="142" height="142" viewBox="0 0 142 142">
    <defs>
        <linearGradient id="1l7oai57ub" x1="50%" x2="50%" y1="0%" y2="100%">
            <stop offset="0%" stop-color="#6387AC"/>
            <stop offset="100%" stop-color="#3C536A"/>
        </linearGradient>
        <circle id="05yctb2s0a" cx="71" cy="71" r="71"/>
    </defs>
    <g fill="none" fill-rule="evenodd">
        <mask id="0p27ueo3cc" fill="#fff">
            <use xlink:href="#05yctb2s0a"/>
        </mask>
        <use fill="url(#1l7oai57ub)" xlink:href="#05yctb2s0a"/>
        <g fill-rule="nonzero" mask="url(#0p27ueo3cc)">
            <g transform="translate(27 19)">
                <path fill="#FFC3BD" d="M55.81 49.75l3.17.79c1.1.26 2.19.49 3.28.7 2.099.42 4.219.731 6.35.93.935.078 1.873.098 2.81.06.617-.016 1.23-.096 1.83-.24.13 0 .12 0 0 .11-.183.207-.316.453-.39.72-.07.28 0 .41 0 .35.037-.188.037-.382 0-.57-.496-1.74-1.265-3.391-2.28-4.89-1.194-1.87-2.486-3.676-3.87-5.41-2.84-3.57-6-7.15-9.17-10.57l3.62-4.53c4.271 2.647 8.288 5.683 12 9.07 1.931 1.757 3.733 3.652 5.39 5.67 1.965 2.295 3.49 4.932 4.5 7.78.316.973.514 1.98.59 3 .093 1.32-.077 2.646-.5 3.9-.496 1.402-1.323 2.665-2.41 3.68-.901.833-1.936 1.509-3.06 2-1.655.708-3.409 1.156-5.2 1.33-1.465.149-2.939.196-4.41.14-2.686-.106-5.36-.417-8-.93-1.28-.24-2.54-.52-3.79-.82-1.25-.3-2.44-.62-3.81-1l3.35-11.27z"/>
                <path fill="#263238" d="M45.1 53c4-6.18 25.65-1.63 25.65-1.63L72 70.07c-5.864-.867-11.768-1.438-17.69-1.71-6.11-.27-14.23-7.68-9.21-15.36z"/>
                <path fill="#FFC3BD" d="M58.73 32.48l-7.25-3.88 7-5.52c1.997 1.252 3.365 3.296 3.76 5.62l-3.51 3.78z"/>
                <path fill="#FFC3BD" d="M47.06 24.56L54.13 20.18 58.52 23.08 51.48 28.6z"/>
                <path fill="#E63A46" d="M27 69.89l-9.41 13.57c-.606.861-.953 1.878-1 2.93l-.74 18c-.053 1.34.38 2.654 1.22 3.7l4.09 5.08c1.13 1.37 2.848 2.114 4.62 2l12.37-.68c2.94-.16 5.24-2.595 5.23-5.54l-.11-36.15c-.002-1.491-.607-2.918-1.676-3.958-1.07-1.04-2.513-1.602-4.004-1.562l-6.22.17c-1.762.071-3.385.978-4.37 2.44z"/>
                <path fill="#000" d="M27 69.89l-9.41 13.57c-.606.861-.953 1.878-1 2.93l-.74 18c-.053 1.34.38 2.654 1.22 3.7l4.09 5.08c1.13 1.37 2.848 2.114 4.62 2l12.37-.68c2.94-.16 5.24-2.595 5.23-5.54l-.11-36.15c-.002-1.491-.607-2.918-1.676-3.958-1.07-1.04-2.513-1.602-4.004-1.562l-6.22.17c-1.762.071-3.385.978-4.37 2.44z" opacity=".3"/>
                <rect width="38.16" height="18.6" x="19.615" y="46.503" fill="#E63A46" rx="5.46" transform="rotate(-1.57 38.695 55.803)"/>
                <rect width="38.16" height="18.6" x="19.615" y="46.503" fill="#000" opacity=".3" rx="5.46" transform="rotate(-1.57 38.695 55.803)"/>
                <path fill="#263238" d="M18.54 51.91c2.09 8.377 3.557 16.897 4.39 25.49.61 6 .93 11.7 1.1 16.89.39 12.14-.06 21.38.24 24.52l41.23-2c1.22-60.66-3.76-66.61-3.76-66.61-3.245-.674-6.527-1.148-9.83-1.42-.667-.06-1.377-.1-2.13-.12-5.855-.053-11.708.234-17.53.86-1.1.11-2.22.25-3.31.4-5.53.75-10.4 1.99-10.4 1.99z"/>
                <path fill="#E63A46" d="M59.86 70.42c-9.957-2.217-20.348-1.434-29.86 2.25l-.84-2.89c10.025-3.882 20.976-4.707 31.47-2.37-.24 1-.51 2.01-.77 3.01z"/>
                <path fill="#000" d="M28.71 63.23c-.052 6.328-1.95 12.504-5.46 17.77-.09-1.18-.2-2.37-.32-3.57-.46-4.5-1.08-9.17-1.92-13.89l7.7-.31z" opacity=".2"/>
                <path fill="#FFF" d="M53.06 48.85l-1.15-.1c-.7-.06-1.41-.1-2.12-.14-5.855-.045-11.708.245-17.53.87-1.11.11-2.22.25-3.31.4h-.07l.79 1.23c1.22 1.93 5.12 6.48 15.09 7.38l1 .08.83-.47c2.14-1.22 5.61-4.17 6.39-7.31.15-.636.177-1.294.08-1.94z"/>
                <path fill="#263238" d="M26.61 17.87c-3.89-1.94-8.32 3.65-7 7.14 2.006-.383 4.053.423 5.26 2.07 0 0-2.59 3.18-1 6.64 3.16-2 6.39.76 6.39.76-.775 1.907-.303 4.093 1.19 5.51.84-2.26 4-.22 5.28-2 2.09-2.91-.32-6-.32-6l-.87-1.44c-.64-6.9-2.88-9.67-8.93-12.68z"/>
                <path fill="#FFC3BD" d="M33 29.66c1.39 5.59 3 15.86-.75 19.82 1.56 2.47 5.57 5.31 12.77 6 2.56-1.45 5.93-5 4.75-6.82-6.36-1.19-6.43-5.86-5.55-10.3L33 29.66z"/>
                <path fill="#E63A46" d="M52.78 49.05c.45 3.75 3.72 28.68 12.31 39.34.136.161.357.223.556.154.2-.069.336-.253.344-.464v-4.63c.005-.04.005-.08 0-.12-.3-1.09-4.68-17.63-5.27-33.52-.005-.174-.1-.333-.25-.42-2.31-.886-4.804-1.192-7.26-.89-.13.015-.25.082-.33.185-.08.103-.117.235-.1.365z"/>
                <path fill="#000" d="M37.59 33.19l6.63 5.12c-.219 1.033-.346 2.084-.38 3.14-2.42-.23-5.85-2.7-6.23-5.21-.194-1.007-.201-2.04-.02-3.05z" opacity=".2"/>
                <path fill="#263238" d="M46.81 20.43c2.07.21 5.1-6.7 1.65-11.64-3.19-4.55-9.48.17-10.27 1-.79.83 1.19 9.87 8.62 10.64z"/>
                <path fill="#FFC3BD" d="M29.4 22.16c1.92 7.41 2.67 11.85 7.21 15 6.83 4.69 15.43-.56 15.76-8.4.29-7.05-2.9-18-10.83-19.55-3.542-.707-7.199.466-9.67 3.1-2.47 2.636-3.404 6.36-2.47 9.85z"/>
                <path fill="#263238" d="M32.68 28.06c2.08.21 2.79-9.25 1.65-11.64-1.14-2.39-9.67 0-10.26 1-3.3 5.66 1.19 9.87 8.61 10.64z"/>
                <path fill="#263238" d="M49.42 5c-.3-2.86-3.67-4.39-7.27-4-.17 2.11-3.64 3.7-3.64 3.7-2.13-1.695-4.91-2.342-7.57-1.76.22 3.2-2.78 5.66-2.78 5.66s-3.12-1.33-6.31 1.65c2.58 1.22-1.63 3.91.72 6.9 2.66 3.39 7.38 1.47 7.38 1.47l2-1.06c9.78-1.14 18.28-5.1 17.47-12.56zM48.69 29.29c-1.512 1.088-3.205 1.9-5 2.4-.052.015-.109.006-.153-.025-.045-.031-.073-.08-.077-.135-.003-.123.08-.232.2-.26 1.71-.485 3.325-1.263 4.77-2.3.084-.079.216-.079.3 0 .05.041.077.106.069.171-.008.065-.05.121-.109.149z"/>
                <path fill="#FFC3BD" d="M27.62 30.27c1.323 1.399 3.145 2.218 5.07 2.28 2.55.06 3.2-2.37 2-4.45-1.11-1.88-3.78-4.16-6.09-3.23-2.31.93-2.6 3.66-.98 5.4z"/>
                <path fill="#E63A46" d="M81.78 200.74c-4.06-23.2-16.28-84-16.28-84l-27.1 1.34S57 186.24 62.34 206c5.34 19.76 24 76.27 24 76.27l11.81-5.58S86 224.87 81.78 200.74z"/>
                <path fill="#E63A46" d="M54.13 117.33s-5.43 64.58-6.11 87.19c-.75 24.75-3.27 79.63-3.27 79.63H30.61S28.44 234 28 209.66c-.54-27.5-3.69-90.85-3.69-90.85l29.82-1.48z"/>
                <path fill="#263238" d="M41.19 22c.12.61.54 1 .94 1 .4 0 .63-.63.51-1.24s-.54-1-.94-1c-.4 0-.63.67-.51 1.24zM48.1 20.69c.12.61.54 1 .94 1 .4 0 .62-.64.5-1.25s-.54-1-.94-1c-.4 0-.6.64-.5 1.25z"/>
                <path fill="#ED847E" d="M46 21.42c1.093 1.727 2.42 3.295 3.94 4.66-.89 1.22-2.93 1-2.93 1L46 21.42z"/>
                <path fill="#263238" d="M42.18 18.49c-.131-.034-.27.009-.36.11-.603.704-1.507 1.075-2.43 1-.198-.024-.38.113-.41.31-.017.097.006.197.065.277.058.079.147.13.245.143 1.175.094 2.323-.387 3.08-1.29.07-.066.11-.158.11-.255s-.04-.189-.11-.255c-.057-.036-.124-.05-.19-.04zM50.68 15.11c.07-.02.134-.062.18-.12.061-.077.089-.175.078-.272-.012-.098-.061-.187-.138-.248-.906-.754-2.124-1.016-3.26-.7-.188.066-.29.27-.23.46.066.188.27.29.46.23.905-.225 1.863-.006 2.58.59.095.069.217.09.33.06z"/>
                <path fill="#FFC3BD" d="M26.62 63.39l-2.23 3.06c-.76 1.05-1.5 2.12-2.23 3.19-1.47 2.14-2.88 4.31-4.26 6.48-1.38 2.17-2.63 4.4-3.84 6.62-1.159 2.183-2.207 4.422-3.14 6.71v.09s0-.08 0 0v.18c.005.053.005.107 0 .16v.49l.05.3c.178 1.001.463 1.98.85 2.92.937 2.273 2.037 4.475 3.29 6.59 1.27 2.22 2.68 4.43 4.13 6.63 1.45 2.2 3 4.41 4.45 6.55l-4.25 3.94c-4.27-3.728-8.184-7.845-11.69-12.3-1.843-2.32-3.48-4.795-4.89-7.4-.793-1.498-1.433-3.073-1.91-4.7l-.19-.68-.14-.75c0-.26-.09-.5-.12-.77l-.06-.85C.403 89.233.42 88.614.49 88c.036-.337.096-.671.18-1l.12-.52c.032-.142.072-.283.12-.42 1.733-5.535 4.081-10.858 7-15.87 1.4-2.47 2.9-4.86 4.47-7.19.79-1.17 1.6-2.32 2.43-3.46.83-1.14 1.65-2.23 2.62-3.43l9.19 7.28z"/>
                <path fill="#263238" d="M18.54 51.91c-7.27 1.32-14 18.88-14 18.88l14.85 12.6s5.13-8.89 9.26-17.49c4.53-9.36-1.32-15.58-10.11-13.99z"/>
                <path fill="#FFC3BD" d="M20.6 112.27l7.77-1-3 9.4s-6.8-.64-6.86-4.29l2.09-4.11zM33.92 114.59L31.1 122.24 25.4 120.7 28.37 111.31z"/>
                <path fill="#E63A46" d="M23.26 51.16c.84 4.17 4.46 24.17.21 40.3-.006.026-.006.054 0 .08-.003.964.064 1.926.2 2.88.028.134.124.243.253.288.129.045.272.019.377-.068 2.09-1.73 9.79-9.15 9.84-25.06.05-12.67-1.91-18.24-2.65-19.9-.164-.337-.531-.525-.9-.46l-6.63 1c-.221.024-.422.14-.555.317-.133.179-.185.404-.145.623z"/>
            </g>
        </g>
    </g>
</svg>
